<svg width="268" height="130" viewBox="0 0 268 130" fill="none" xmlns="http://www.w3.org/2000/svg">
<path d="M126.217 88.3986C125.004 88.3986 124.047 87.6299 123.347 86.0925L106.054 45.2116C105.704 44.3964 105.611 43.6743 105.774 43.0453C105.938 42.3931 106.474 41.8573 107.385 41.438C109.298 40.483 110.652 40.9722 111.445 42.9056L127.793 81.5502H125.762L141.69 42.9056C142.46 40.9954 143.814 40.5063 145.751 41.438C146.567 41.8573 147.069 42.3931 147.256 43.0453C147.466 43.6743 147.407 44.3964 147.081 45.2116L129.648 86.0925C128.925 87.6299 127.874 88.3986 126.498 88.3986H126.217Z" fill="#ffffff"/>
<path d="M159.233 88.3986C158.23 88.3986 157.483 88.1657 156.993 87.6998C156.526 87.2106 156.293 86.4652 156.293 85.4636V44.0237C156.293 42.9987 156.526 42.2533 156.993 41.7874C157.483 41.3216 158.23 41.0886 159.233 41.0886C160.26 41.0886 161.007 41.3216 161.473 41.7874C161.94 42.2533 162.174 42.9987 162.174 44.0237V85.4636C162.174 86.4652 161.94 87.2106 161.473 87.6998C161.007 88.1657 160.26 88.3986 159.233 88.3986Z" fill="#ffffff"/>
<path d="M109.123 110.082C106.883 110.082 105.763 108.964 105.763 106.728C105.763 104.491 106.883 103.373 109.123 103.373H264.64C266.88 103.373 268 104.491 268 106.728C268 108.964 266.88 110.082 264.64 110.082H109.123Z" fill="#ffffff"/>
<path d="M179.676 88.3987C177.716 88.3987 176.735 87.4203 176.735 85.4636V43.9538C176.735 41.9971 177.716 41.0188 179.676 41.0188C180.959 41.0188 182.033 41.6477 182.896 42.9056C182.896 42.9056 199 67 200 68C201 69 243 70 245 68C247 66 261.821 42.9056 261.821 42.9056C262.615 41.6477 263.805 41.0188 265.392 41.0188C266.979 41.0188 267.772 41.9971 267.772 43.9538V85.4636C267.772 87.4203 266.792 88.3987 264.832 88.3987C262.872 88.3987 261.891 87.4203 261.891 85.4636V49.8239L263.712 50.4528L249 72.0463C248.444 72.8569 248 74 247 74C246.5 74 198.54 74 198 74C197 74 196.864 73.3042 196 72.0463L180.866 50.4528L182.616 50.942V85.4636C182.616 87.4203 181.636 88.3987 179.676 88.3987Z" fill="#C24444"/>
<path d="M85.833 88.4582C83.641 88.4582 82.5449 87.3702 82.5449 85.1942V3.26401C82.5449 1.088 83.641 0 85.833 0C88.0251 0 89.1212 1.088 89.1212 3.26401V85.1942C89.1212 87.3702 88.0251 88.4582 85.833 88.4582Z" fill="#C24444"/>
<path d="M84.8789 109.982C82.5541 109.982 82.0867 108.585 82.0123 106.376C82.0032 106.663 82 106.971 82 107.299V105.528C82 105.822 82.0032 106.105 82.0123 106.376C82.0867 104.028 82.5541 103 84.8789 103H87.5407C89.8655 103 90.4571 104.028 90.5586 106.376C90.571 106.105 90.5761 105.822 90.5761 105.528V107.299C90.5761 106.971 90.571 106.663 90.5586 106.376C90.4571 108.585 89.8655 109.982 87.5407 109.982H84.8789Z" fill="#C24444"/>
<path d="M3.91443 99.4823C1.30481 99.4823 0 98.1352 0 95.4411V92.7988C0 90.2083 1.30481 88.9131 3.91443 88.9131H6.57624C9.18586 88.9131 10.4907 90.2083 10.4907 92.7988V95.4411C10.4907 98.1352 9.18586 99.4823 6.57624 99.4823H3.91443ZM3.91443 61.1907C1.30481 61.1907 0 59.8436 0 57.1495V54.5072C0 51.9167 1.30481 50.6215 3.91443 50.6215H6.57624C9.18586 50.6215 10.4907 51.9167 10.4907 54.5072V57.1495C10.4907 59.8436 9.18586 61.1907 6.57624 61.1907H3.91443Z" fill="#ffffff"/>
<path d="M107.832 29.977C106.611 29.977 106 29.3584 106 28.1214V1.87859C106 0.64156 106.611 0.0230426 107.832 0.0230426H123.493C124.714 0.0230426 125.325 0.64156 125.325 1.87859C125.325 3.11563 124.714 3.73415 123.493 3.73415H109.664V13.0119H118.345C119.567 13.0119 120.178 13.6304 120.178 14.8675C120.178 16.1045 119.567 16.723 118.345 16.723H109.664V26.2659H123.493C124.714 26.2659 125.325 26.8844 125.325 28.1214C125.325 29.3584 124.714 29.977 123.493 29.977H107.832Z" fill="#ffffff"/>
<path d="M131.5 29.5793C130.525 28.9019 130.38 28.033 131.063 26.9727L139.046 15.0442L130.627 3.02727C129.973 2.05532 130.133 1.18645 131.107 0.420661C132.11 -0.27149 132.954 -0.109498 133.637 0.906638L141.446 11.9958L149.298 0.906638C150.054 -0.0800431 150.897 -0.212583 151.828 0.50902C152.817 1.24535 152.962 2.09949 152.264 3.07145L143.67 15.1767L151.915 26.9286C152.599 27.9447 152.439 28.8283 151.435 29.5793C150.432 30.2715 149.589 30.1095 148.905 29.0934L141.315 18.2693L134.073 29.1375C133.404 30.0948 132.547 30.242 131.5 29.5793Z" fill="#ffffff"/>
<path d="M181.448 29.977C180.837 29.977 180.379 29.8223 180.073 29.5131C179.768 29.2038 179.615 28.7399 179.615 28.1214V3.77833H171.152C170.542 3.77833 170.084 3.6237 169.778 3.31444C169.473 3.00518 169.32 2.54129 169.32 1.92277C169.32 1.30426 169.473 0.84037 169.778 0.531111C170.084 0.221851 170.542 0.0672218 171.152 0.0672218H191.743C192.353 0.0672218 192.811 0.221851 193.117 0.531111C193.422 0.84037 193.575 1.30426 193.575 1.92277C193.575 2.54129 193.422 3.00518 193.117 3.31444C192.811 3.6237 192.353 3.77833 191.743 3.77833H183.28V28.1214C183.28 28.7105 183.12 29.167 182.8 29.491C182.494 29.815 182.044 29.977 181.448 29.977Z" fill="#ffffff"/>
<path d="M201.22 29.977C200.595 29.977 200.13 29.8297 199.824 29.5352C199.533 29.2259 199.388 28.7546 199.388 28.1214V1.92277C199.388 1.2748 199.533 0.803553 199.824 0.50902C200.13 0.214488 200.595 0.0672218 201.22 0.0672218C201.86 0.0672218 202.325 0.214488 202.616 0.50902C202.907 0.803553 203.052 1.2748 203.052 1.92277V28.1214C203.052 28.7546 202.907 29.2259 202.616 29.5352C202.325 29.8297 201.86 29.977 201.22 29.977Z" fill="#ffffff"/>
<path d="M213.958 29.977C212.736 29.977 212.126 29.3584 212.126 28.1214V1.87859C212.126 0.64156 212.736 0.0230426 213.958 0.0230426C214.583 0.0230426 215.194 0.391207 215.79 1.12754L233.327 24.0127H232.41V1.87859C232.41 0.64156 233.021 0.0230426 234.243 0.0230426C235.464 0.0230426 236.075 0.64156 236.075 1.87859V28.1214C236.075 29.3584 235.464 29.977 234.243 29.977C233.588 29.977 232.978 29.6088 232.41 28.8725L214.874 5.98732H215.79V28.1214C215.79 29.3584 215.179 29.977 213.958 29.977Z" fill="#ffffff"/>
<path d="M253.866 29.977C250.536 29.977 248.071 29.1744 246.472 27.5692C244.887 25.9492 244.094 23.4531 244.094 20.0807V9.91932C244.094 6.51748 244.887 4.01395 246.472 2.40875C248.057 0.788827 250.507 -0.00641025 253.822 0.0230426H259.101C261.835 0.0230426 263.921 0.59738 265.361 1.74605C266.8 2.88 267.636 4.67665 267.869 7.13599C267.956 7.75451 267.84 8.22576 267.52 8.54975C267.2 8.87373 266.735 9.03572 266.124 9.03572C265.019 9.03572 264.379 8.41721 264.205 7.18017C264.059 5.82532 263.594 4.91228 262.809 4.44102C262.038 3.96977 260.802 3.73415 259.101 3.73415H253.822C252.281 3.71942 251.067 3.89614 250.18 4.26431C249.307 4.63247 248.682 5.27308 248.304 6.18613C247.941 7.08445 247.759 8.32885 247.759 9.91932V20.0807C247.759 21.6564 247.941 22.8935 248.304 23.7918C248.682 24.6901 249.315 25.3307 250.202 25.7136C251.089 26.0818 252.31 26.2659 253.866 26.2659H259.101C260.453 26.2659 261.507 26.1186 262.264 25.8241C263.034 25.5148 263.572 24.9773 263.878 24.2115C264.183 23.4457 264.336 22.3633 264.336 20.9643V18.8878L260.933 18.8436C259.712 18.8436 259.101 18.2251 259.101 16.9881C259.101 15.7511 259.712 15.1325 260.933 15.1325L266.168 15.1767C267.389 15.1767 268 15.7952 268 17.0323V20.9643C268 24.101 267.28 26.391 265.841 27.8342C264.401 29.2627 262.154 29.977 259.101 29.977H253.866Z" fill="#ffffff"/>
<path d="M161.22 29.977C160.595 29.977 160.129 29.8297 159.824 29.5352C159.533 29.2259 159.388 28.7547 159.388 28.1214V1.92278C159.388 1.27481 159.533 0.803562 159.824 0.509028C160.129 0.214496 160.595 0.0672302 161.22 0.0672302C161.86 0.0672302 162.325 0.214496 162.616 0.509028C162.907 0.803562 163.052 1.27481 163.052 1.92278V28.1214C163.052 28.7547 162.907 29.2259 162.616 29.5352C162.325 29.8297 161.86 29.977 161.22 29.977Z" fill="#ffffff"/>
<path d="M64.1957 130H62.5598C61.1576 130 60.4565 128.982 60.4565 126.945V106.736C58.8985 107.52 57.6522 108.146 56.7174 108.616C55.7826 109.086 54.9257 109.399 54.1467 109.556C53.3678 109.869 52.5888 110.026 51.8098 110.026C51.0308 110.026 50.0181 110.026 48.7717 110.026H40.8261C35.529 110.026 31.4004 108.46 28.4402 105.326C25.4801 102.037 24 97.1018 24 90.5222V59.5039C24 53.0809 25.4801 48.2245 28.4402 44.9347C31.4004 41.6449 35.529 40 40.8261 40H64.1957C66.0652 40 67 40.9399 67 42.8198V126.945C67 127.728 66.7663 128.433 66.2989 129.06C65.8315 129.687 65.1304 130 64.1957 130ZM60.4565 51.2794C59.3659 48.7728 57.5743 47.6762 55.0815 47.9896H40.8261C33.971 47.9896 30.5435 51.8277 30.5435 59.5039V90.2872C30.5435 98.2768 33.971 102.272 40.8261 102.272H48.7717C56.5616 102.272 60.4565 98.2768 60.4565 90.2872V51.2794Z" fill="#ffffff"/>
</svg>
